<?xml version="1.0" encoding="UTF-8" standalone="no"?>
<!-- Created with Inkscape (http://www.inkscape.org/) -->

<svg
   width="256"
   height="256"
   viewBox="0 0 67.733332 67.733333"
   version="1.1"
   id="svg1"
   xml:space="preserve"
   inkscape:version="1.4 (86a8ad7, 2024-10-11)"
   sodipodi:docname="tuterlog-logo.svg"
   xmlns:inkscape="http://www.inkscape.org/namespaces/inkscape"
   xmlns:sodipodi="http://sodipodi.sourceforge.net/DTD/sodipodi-0.dtd"
   xmlns="http://www.w3.org/2000/svg"
   xmlns:svg="http://www.w3.org/2000/svg"><sodipodi:namedview
     id="namedview1"
     pagecolor="#505050"
     bordercolor="#ffffff"
     borderopacity="1"
     inkscape:showpageshadow="0"
     inkscape:pageopacity="0"
     inkscape:pagecheckerboard="1"
     inkscape:deskcolor="#505050"
     inkscape:document-units="mm"
     inkscape:zoom="1.4378367"
     inkscape:cx="208.29904"
     inkscape:cy="103.28016"
     inkscape:window-width="1920"
     inkscape:window-height="1009"
     inkscape:window-x="-8"
     inkscape:window-y="-8"
     inkscape:window-maximized="1"
     inkscape:current-layer="layer1" /><defs
     id="defs1" /><g
     inkscape:label="Layer 1"
     inkscape:groupmode="layer"
     id="layer1"><rect
       style="fill:#ffffff;stroke-width:2.88757;stroke-linejoin:bevel;stroke-miterlimit:0;paint-order:markers fill stroke"
       id="rect1"
       width="63.1171"
       height="63.1171"
       x="2.3081167"
       y="2.3081167"
       rx="12" /><path
       d="m 25.249464,22.304116 c -0.356997,0.375305 -1.830757,2.425754 -3.414364,4.741663 -0.668228,0.979455 -1.235762,1.803297 -1.244916,1.821602 -0.01829,0.01833 -0.659072,0.128154 -1.427989,0.247153 -3.222136,0.503458 -7.634264,1.537837 -8.00957,1.894834 -0.448534,0.411921 -0.12815,1.345609 0.45769,1.345609 0.128154,0 0.906226,-0.164769 1.730067,-0.366152 1.565299,-0.375305 4.485358,-0.942842 5.419046,-1.061841 l 0.530919,-0.06407 -0.448536,0.677379 c -1.464607,2.16945 -3.679823,5.858425 -4.512819,7.496954 -0.906226,1.794143 -1.290683,2.938366 -1.345607,4.036821 -0.07324,1.29984 0.164768,1.876529 0.951994,2.343373 0.549229,0.320381 1.47376,0.384456 2.425755,0.17392 1.263223,-0.283768 3.798824,-1.675144 5.794348,-3.194672 0.302075,-0.228846 0.558383,-0.411921 0.567537,-0.402767 0.0092,0.0092 -0.04576,0.247153 -0.119001,0.521766 -0.521766,2.004679 0.659072,3.13975 2.709524,2.608831 1.080145,-0.274616 2.920058,-1.40053 4.64097,-2.837674 0.393611,-0.329537 0.713997,-0.576689 0.723148,-0.567537 0.0092,0.0092 -0.03662,0.247151 -0.109845,0.521767 -0.43938,1.684297 0.210538,2.883444 1.638529,2.993288 0.329536,0.02746 0.814689,0 1.080147,-0.06407 1.217456,-0.274615 3.258749,-1.510376 5.126123,-3.093981 0.475997,-0.402769 0.869611,-0.72315 0.878764,-0.713996 0.0092,0 -0.04576,0.302076 -0.119,0.649919 -0.503459,2.306755 0.860456,3.753053 3.222135,3.423517 1.528683,-0.210537 3.69813,-1.217453 6.160495,-2.874289 1.830762,-1.217456 2.013837,-1.382224 2.087071,-1.803296 0.04576,-0.292921 0.0092,-0.375306 -0.228844,-0.622457 -0.173924,-0.173924 -0.375311,-0.274616 -0.530922,-0.274616 -0.164772,0 -0.823839,0.393614 -1.995525,1.171686 -2.526447,1.684296 -4.31144,2.544753 -5.693658,2.72783 -0.549228,0.06407 -1.089303,-0.07324 -1.226608,-0.329537 -0.164768,-0.31123 -0.100697,-1.171686 0.137305,-1.885681 0.466844,-1.391377 1.290686,-2.837676 3.396059,-5.959118 1.162533,-1.711758 3.295365,-4.769124 3.469288,-4.952201 0.07321,-0.08238 4.100891,-0.311227 7.048417,-0.393612 l 3.47844,-0.09154 0.21054,-0.228843 c 0.448528,-0.503459 0.137306,-0.951994 -0.723149,-1.052687 -1.885684,-0.237999 -6.032351,-0.292921 -8.037028,-0.118999 -0.503465,0.04576 -0.576691,0.03662 -0.530922,-0.09154 0.02746,-0.07324 0.796375,-1.144222 1.711759,-2.379984 1.473755,-1.995525 1.647678,-2.279292 1.647678,-2.590522 0,-0.750612 -0.897072,-1.135069 -1.418833,-0.613305 -0.183076,0.19223 -2.590528,3.396059 -3.606594,4.814894 l -0.759766,1.06184 -0.567539,0.06408 c -2.279289,0.237997 -4.759968,0.613303 -6.462573,0.9703 -1.025224,0.219692 -1.318146,0.43023 -1.318146,0.961149 0,0.384461 0.356997,0.768917 0.723152,0.768917 0.128151,0 0.979454,-0.118998 1.894834,-0.265457 2.169446,-0.347845 3.954439,-0.585843 4.128354,-0.540074 0.09154,0.01829 -0.219684,0.540074 -1.034379,1.720912 -0.649916,0.933685 -1.537832,2.22437 -1.977215,2.883444 -1.913141,2.846828 -6.618189,6.993494 -8.851715,7.817336 -0.979455,0.356999 -1.409681,0.201383 -1.290682,-0.485151 0.155614,-0.979454 0.842147,-2.297601 2.471523,-4.796588 0.961147,-1.464605 1.04353,-1.739216 0.622458,-2.160291 -0.183078,-0.173923 -0.338691,-0.237999 -0.604152,-0.237999 -0.347843,0 -0.430226,0.07324 -2.526444,2.178602 -2.874292,2.883444 -4.833202,4.512817 -6.371039,5.281737 -0.860457,0.439381 -1.47376,0.540071 -1.583605,0.274613 -0.210537,-0.576689 1.418836,-3.304519 3.579132,-5.995734 0.384458,-0.475996 0.723148,-0.9703 0.759763,-1.089299 0.128153,-0.503459 -0.503457,-1.107609 -1.025224,-0.979455 -0.128153,0.03662 -0.98861,0.82384 -1.986374,1.821602 -3.039057,3.03906 -5.684503,5.089508 -8.146871,6.288654 -1.354761,0.668228 -2.398294,0.805533 -2.636291,0.366152 -0.155615,-0.292921 -0.100687,-1.061838 0.137306,-1.81245 0.283768,-0.906225 1.409685,-3.121442 2.48983,-4.915587 1.180841,-1.968063 3.872053,-6.178807 4.137514,-6.480881 0.219691,-0.237999 5.62958,-0.677381 9.593171,-0.778074 2.865138,-0.07324 2.892598,-0.08238 2.892598,-0.668225 0,-0.466844 -0.256305,-0.604152 -1.28153,-0.695687 -1.427991,-0.119002 -7.139957,-0.09154 -8.522179,0.04576 -0.67738,0.07324 -1.235761,0.109847 -1.263222,0.09154 -0.04576,-0.04576 1.409682,-2.196909 2.608829,-3.862899 1.354761,-1.876526 1.373069,-1.931449 0.961149,-2.425755 -0.19223,-0.237997 -0.302076,-0.283766 -0.622457,-0.283766 -0.320384,0 -0.439382,0.05492 -0.668228,0.292921 z"
       id="path1"
       style="fill:#000000;stroke:#000000;stroke-width:1.1;stroke-dasharray:none;stroke-opacity:1" /></g></svg>
