<?xml version="1.0" encoding="UTF-8" standalone="no"?>
<!-- Created with Inkscape (http://www.inkscape.org/) -->

<svg
   width="256"
   height="128"
   viewBox="0 0 67.733332 33.866667"
   version="1.1"
   id="svg1"
   xml:space="preserve"
   inkscape:version="1.4 (86a8ad7, 2024-10-11)"
   sodipodi:docname="logo-wide.svg"
   xmlns:inkscape="http://www.inkscape.org/namespaces/inkscape"
   xmlns:sodipodi="http://sodipodi.sourceforge.net/DTD/sodipodi-0.dtd"
   xmlns="http://www.w3.org/2000/svg"
   xmlns:svg="http://www.w3.org/2000/svg"><sodipodi:namedview
     id="namedview1"
     pagecolor="#505050"
     bordercolor="#ffffff"
     borderopacity="1"
     inkscape:showpageshadow="0"
     inkscape:pageopacity="0"
     inkscape:pagecheckerboard="1"
     inkscape:deskcolor="#505050"
     inkscape:document-units="mm"
     inkscape:zoom="1.4378367"
     inkscape:cx="208.29904"
     inkscape:cy="103.28016"
     inkscape:window-width="1920"
     inkscape:window-height="1009"
     inkscape:window-x="-8"
     inkscape:window-y="-8"
     inkscape:window-maximized="1"
     inkscape:current-layer="layer1" /><defs
     id="defs1" /><g
     inkscape:label="Layer 1"
     inkscape:groupmode="layer"
     id="layer1"><path
       d="m 22.78209,2.4222016 c -0.448035,0.471012 -2.297621,3.044349 -4.285066,5.950842 -0.838634,1.229227 -1.550896,2.2631584 -1.562384,2.2861314 -0.02295,0.02301 -0.827143,0.160835 -1.792143,0.31018 -4.043818,0.631846 -9.5810893,1.930004 -10.0521026,2.378039 -0.5629154,0.516966 -0.1608298,1.688755 0.5744062,1.688755 0.1608348,0 1.1373241,-0.206787 2.1712541,-0.459525 1.9644683,-0.471012 5.6291763,-1.183278 6.8009653,-1.332623 l 0.66631,-0.08041 -0.562918,0.850119 c -1.838099,2.722685 -4.618221,7.352391 -5.6636403,9.408764 -1.1373241,2.25167 -1.6198221,3.687683 -1.6887524,5.066257 -0.091917,1.631314 0.2067858,2.355066 1.1947635,2.94096 0.6892888,0.402082 1.8495862,0.482497 3.0443502,0.218272 1.58536,-0.356132 4.767568,-2.102325 7.271974,-4.009351 0.379108,-0.287204 0.700777,-0.516965 0.712266,-0.505477 0.01155,0.01155 -0.05743,0.31018 -0.149348,0.654823 -0.654822,2.515895 0.827143,3.940422 3.400484,3.274113 1.355594,-0.344647 3.664707,-1.757682 5.824471,-3.561314 0.493986,-0.413573 0.896074,-0.723751 0.907559,-0.712266 0.01155,0.01155 -0.04596,0.310178 -0.137857,0.654824 -0.551427,2.113812 0.264228,3.618756 2.056373,3.756611 0.413572,0.03446 1.022444,0 1.355597,-0.08041 1.527922,-0.344645 4.089768,-1.89554 6.433344,-3.882982 0.597382,-0.50548 1.091372,-0.907562 1.102859,-0.896074 0.01155,0 -0.05743,0.379109 -0.149347,0.815656 -0.631846,2.895004 1.079883,4.710125 4.043817,4.296554 1.918515,-0.264227 4.641196,-1.527918 7.731493,-3.607266 2.297627,-1.527922 2.527388,-1.734707 2.619298,-2.263158 0.05743,-0.367619 0.01155,-0.471013 -0.287202,-0.78119 -0.218277,-0.218277 -0.47102,-0.344647 -0.666313,-0.344647 -0.206791,0 -1.033928,0.493991 -2.504407,1.47048 -3.17072,2.113811 -5.410907,3.193694 -7.145607,3.423458 -0.689287,0.08041 -1.367088,-0.09192 -1.539407,-0.413573 -0.206786,-0.390597 -0.126376,-1.470479 0.172319,-2.366551 0.585895,-1.746194 1.619826,-3.561316 4.262094,-7.478762 1.458992,-2.148276 4.135721,-5.985306 4.353996,-6.21507 0.09188,-0.103388 5.146666,-0.390593 8.845845,-0.493987 l 4.365482,-0.114884 0.264231,-0.287201 c 0.562907,-0.631847 0.17232,-1.194763 -0.907561,-1.321134 -2.366555,-0.298692 -7.57067,-0.367619 -10.086563,-0.149345 -0.631854,0.05743 -0.723754,0.04596 -0.666313,-0.114884 0.03446,-0.09192 0.99946,-1.4360124 2.148277,-2.9869074 1.84958,-2.504407 2.067855,-2.860538 2.067855,-3.251135 0,-0.942027 -1.125836,-1.424525 -1.780652,-0.769705 -0.229762,0.241251 -3.251142,4.262093 -4.526317,6.042747 l -0.953515,1.3326224 -0.712268,0.08042 c -2.860534,0.298689 -5.973815,0.769702 -8.110604,1.217738 -1.286668,0.275716 -1.654288,0.539943 -1.654288,1.206253 0,0.482503 0.448035,0.965 0.907564,0.965 0.160831,0 1.229226,-0.149344 2.378038,-0.333152 2.72268,-0.43655 4.962867,-0.73524 5.181132,-0.677799 0.114884,0.02295 -0.275706,0.677799 -1.298157,2.159764 -0.815652,1.171786 -1.929997,2.79161 -2.481428,3.618756 -2.401014,3.572802 -8.305904,8.776916 -11.109005,9.810847 -1.229227,0.448038 -1.769166,0.252738 -1.61982,-0.60887 0.195297,-1.229226 1.056904,-2.883516 3.10179,-6.019774 1.20625,-1.838096 1.309642,-2.182736 0.781192,-2.71119 -0.229766,-0.218275 -0.425062,-0.298691 -0.758218,-0.298691 -0.436547,0 -0.539939,0.09192 -3.170717,2.73417 -3.607269,3.618756 -6.065724,5.663638 -7.995727,6.628641 -1.079884,0.551429 -1.849586,0.677796 -1.987443,0.344643 -0.264226,-0.723751 1.780656,-4.14721 4.491852,-7.524716 0.482499,-0.59738 0.907559,-1.217737 0.953512,-1.367082 0.160833,-0.631847 -0.631845,-1.390063 -1.286668,-1.229228 -0.160834,0.04596 -1.240717,1.033929 -2.492923,2.286132 -3.814051,3.814055 -7.134117,6.387391 -10.224417,7.892333 -1.700241,0.838634 -3.0098868,1.010954 -3.3085758,0.459525 -0.1952986,-0.367619 -0.1263634,-1.332619 0.1723206,-2.274645 0.3561322,-1.137323 1.7691712,-3.917446 3.1247652,-6.169119 1.481969,-2.469942 4.859472,-7.754474 5.192628,-8.133581 0.275715,-0.298691 7.065188,-0.850121 12.039541,-0.976491 3.595781,-0.09192 3.630244,-0.103388 3.630244,-0.838631 0,-0.585894 -0.321666,-0.758217 -1.608335,-0.873095 -1.792146,-0.1493494 -8.960729,-0.114884 -10.695434,0.05743 -0.850119,0.09192 -1.550894,0.137859 -1.585358,0.114883 -0.05743,-0.05743 1.769167,-2.7571464 3.274111,-4.8479834 1.700241,-2.355061 1.723217,-2.42399 1.206253,-3.04435 -0.241251,-0.298689 -0.379109,-0.35613 -0.781191,-0.35613 -0.402085,0 -0.551429,0.06893 -0.838634,0.367619 z"
       id="path1"
       style="fill:#000000;stroke:#000000;stroke-width:1.38051;stroke-dasharray:none;stroke-opacity:1" /></g></svg>
